<mxfile host="Electron" agent="Mozilla/5.0 (X11; Linux x86_64) AppleWebKit/537.36 (KHTML, like Gecko) draw.io/28.0.6 Chrome/138.0.7204.100 Electron/37.2.3 Safari/537.36" version="28.0.6">
  <diagram name="Page-1" id="OwMrUbBi_byrGWBYKhBa">
    <mxGraphModel dx="872" dy="577" grid="1" gridSize="10" guides="1" tooltips="1" connect="1" arrows="1" fold="1" page="1" pageScale="1" pageWidth="850" pageHeight="1100" math="0" shadow="0">
      <root>
        <mxCell id="0" />
        <mxCell id="1" parent="0" />
        <mxCell id="rXD96nUe1-gEZBoH83iY-24" value="MQTT Client&#xa;(mqtt_client.py)" style="whiteSpace=wrap;strokeWidth=2;fillColor=#fff2cc;strokeColor=#d6b656;fontSize=13;fontStyle=1" parent="1" vertex="1">
          <mxGeometry x="494" y="410" width="260" height="70" as="geometry" />
        </mxCell>
        <mxCell id="rXD96nUe1-gEZBoH83iY-25" value="Phát hiện đối tượng&#xa;(human_detector.py)" style="whiteSpace=wrap;strokeWidth=2;fillColor=#fff2cc;strokeColor=#d6b656;fontSize=13;fontStyle=1" parent="1" vertex="1">
          <mxGeometry x="170" y="177" width="270" height="78" as="geometry" />
        </mxCell>
        <mxCell id="rXD96nUe1-gEZBoH83iY-26" value="Theo dõi khung xương&#xa;(skeleton_tracker.py)" style="whiteSpace=wrap;strokeWidth=2;fillColor=#fff2cc;strokeColor=#d6b656;fontStyle=1;fontSize=13;" parent="1" vertex="1">
          <mxGeometry x="168" y="400" width="272" height="70" as="geometry" />
        </mxCell>
        <mxCell id="rXD96nUe1-gEZBoH83iY-27" value="Theo dõi người&#xa;(person_tracker.py)" style="whiteSpace=wrap;strokeWidth=2;fillColor=#fff2cc;strokeColor=#d6b656;fontSize=13;fontStyle=1" parent="1" vertex="1">
          <mxGeometry x="174" y="290" width="260" height="78" as="geometry" />
        </mxCell>
        <mxCell id="rXD96nUe1-gEZBoH83iY-28" value="Bộ xử lý đa luồng&#xa;(detection_processor.py)" style="whiteSpace=wrap;strokeWidth=2;fillColor=#f8cecc;strokeColor=#b85450;fontStyle=1" parent="1" vertex="1">
          <mxGeometry x="306" y="520" width="284" height="78" as="geometry" />
        </mxCell>
        <mxCell id="rXD96nUe1-gEZBoH83iY-29" value="Phát hiện té ngã&#xa;(fall_detector.py)" style="whiteSpace=wrap;strokeWidth=2;fillColor=#f8cecc;strokeColor=#b85450;fontStyle=1" parent="1" vertex="1">
          <mxGeometry x="303" y="620" width="290" height="78" as="geometry" />
        </mxCell>
        <mxCell id="rXD96nUe1-gEZBoH83iY-33" value="JSON MQTT" style="curved=1;startArrow=none;endArrow=block;exitX=0.5;exitY=1;entryX=0.5;entryY=0;rounded=0;exitDx=0;exitDy=0;" parent="1" source="EKtKe1YEMH_d9ayZxX_o-4" target="rXD96nUe1-gEZBoH83iY-24" edge="1">
          <mxGeometry relative="1" as="geometry">
            <Array as="points" />
            <mxPoint x="624" y="368" as="sourcePoint" />
          </mxGeometry>
        </mxCell>
        <mxCell id="rXD96nUe1-gEZBoH83iY-35" value="" style="curved=1;startArrow=none;endArrow=block;exitX=0.5;exitY=1;entryX=0.5;entryY=0;rounded=0;" parent="1" source="rXD96nUe1-gEZBoH83iY-25" target="rXD96nUe1-gEZBoH83iY-27" edge="1">
          <mxGeometry relative="1" as="geometry">
            <Array as="points" />
          </mxGeometry>
        </mxCell>
        <mxCell id="rXD96nUe1-gEZBoH83iY-36" value="" style="curved=1;startArrow=none;endArrow=block;exitX=0.5;exitY=1;entryX=0.5;entryY=0;rounded=0;" parent="1" source="rXD96nUe1-gEZBoH83iY-27" target="rXD96nUe1-gEZBoH83iY-26" edge="1">
          <mxGeometry relative="1" as="geometry">
            <Array as="points" />
          </mxGeometry>
        </mxCell>
        <mxCell id="rXD96nUe1-gEZBoH83iY-37" value="" style="startArrow=none;endArrow=block;exitX=0.5;exitY=1;entryX=0.16;entryY=0;rounded=0;" parent="1" source="rXD96nUe1-gEZBoH83iY-26" target="rXD96nUe1-gEZBoH83iY-28" edge="1">
          <mxGeometry relative="1" as="geometry" />
        </mxCell>
        <mxCell id="rXD96nUe1-gEZBoH83iY-38" value="" style="startArrow=none;endArrow=block;exitX=0.5;exitY=1;entryX=0.84;entryY=0;rounded=0;" parent="1" source="rXD96nUe1-gEZBoH83iY-24" target="rXD96nUe1-gEZBoH83iY-28" edge="1">
          <mxGeometry relative="1" as="geometry" />
        </mxCell>
        <mxCell id="rXD96nUe1-gEZBoH83iY-39" value="" style="curved=1;startArrow=none;endArrow=block;exitX=0.5;exitY=1;entryX=0.5;entryY=0;rounded=0;" parent="1" source="rXD96nUe1-gEZBoH83iY-28" target="rXD96nUe1-gEZBoH83iY-29" edge="1">
          <mxGeometry relative="1" as="geometry">
            <Array as="points" />
          </mxGeometry>
        </mxCell>
        <mxCell id="rXD96nUe1-gEZBoH83iY-40" value="Phát hiện té ngã" style="startArrow=none;endArrow=block;exitX=0;exitY=0.9;rounded=0;entryX=0.5;entryY=0;entryDx=0;entryDy=0;" parent="1" source="rXD96nUe1-gEZBoH83iY-29" target="EKtKe1YEMH_d9ayZxX_o-5" edge="1">
          <mxGeometry x="0.5782" y="-31" relative="1" as="geometry">
            <mxPoint x="160" y="770" as="targetPoint" />
            <mxPoint as="offset" />
          </mxGeometry>
        </mxCell>
        <mxCell id="rXD96nUe1-gEZBoH83iY-41" value="Phát hiện té ngã" style="curved=1;startArrow=none;endArrow=block;entryX=0.5;entryY=0;rounded=0;entryDx=0;entryDy=0;exitX=0.448;exitY=1.051;exitDx=0;exitDy=0;exitPerimeter=0;" parent="1" source="rXD96nUe1-gEZBoH83iY-29" target="EKtKe1YEMH_d9ayZxX_o-6" edge="1">
          <mxGeometry x="-0.1538" y="-48" relative="1" as="geometry">
            <Array as="points" />
            <mxPoint x="439" y="700" as="sourcePoint" />
            <mxPoint x="448" y="770" as="targetPoint" />
            <mxPoint as="offset" />
          </mxGeometry>
        </mxCell>
        <mxCell id="rXD96nUe1-gEZBoH83iY-42" value="" style="startArrow=none;endArrow=block;exitX=1;exitY=0.9;entryX=0.5;entryY=0;rounded=0;entryDx=0;entryDy=0;" parent="1" source="rXD96nUe1-gEZBoH83iY-29" target="EKtKe1YEMH_d9ayZxX_o-7" edge="1">
          <mxGeometry relative="1" as="geometry">
            <mxPoint x="703" y="770" as="targetPoint" />
          </mxGeometry>
        </mxCell>
        <mxCell id="EKtKe1YEMH_d9ayZxX_o-3" style="edgeStyle=orthogonalEdgeStyle;rounded=0;orthogonalLoop=1;jettySize=auto;html=1;entryX=0.5;entryY=0;entryDx=0;entryDy=0;strokeColor=#457B9D;fontColor=#0E1A2A;fillColor=#A8DADC;" edge="1" parent="1" source="EKtKe1YEMH_d9ayZxX_o-1" target="rXD96nUe1-gEZBoH83iY-25">
          <mxGeometry relative="1" as="geometry" />
        </mxCell>
        <mxCell id="EKtKe1YEMH_d9ayZxX_o-1" value="&lt;span style=&quot;color: rgb(0, 0, 0);&quot;&gt;Camera IP&lt;/span&gt;&lt;br style=&quot;padding: 0px; margin: 0px; color: rgb(0, 0, 0);&quot;&gt;&lt;span style=&quot;color: rgb(0, 0, 0);&quot;&gt;(Luồng video)&lt;/span&gt;" style="ellipse;whiteSpace=wrap;html=1;fontStyle=1;fillColor=#dae8fc;strokeColor=#6c8ebf;" vertex="1" parent="1">
          <mxGeometry x="159" y="70" width="290" height="80" as="geometry" />
        </mxCell>
        <mxCell id="EKtKe1YEMH_d9ayZxX_o-4" value="&lt;b&gt;&lt;span style=&quot;color: rgb(0, 0, 0); font-size: 13px;&quot;&gt;Cảm biến ESP32&lt;/span&gt;&lt;br style=&quot;padding: 0px; margin: 0px; color: rgb(0, 0, 0); font-size: 13px;&quot;&gt;&lt;span style=&quot;color: rgb(0, 0, 0); font-size: 13px;&quot;&gt;(Con quay hồi chuyển, Gia tốc kế, GPS)&lt;/span&gt;&lt;/b&gt;" style="ellipse;whiteSpace=wrap;html=1;strokeColor=#6c8ebf;fillColor=#dae8fc;" vertex="1" parent="1">
          <mxGeometry x="490" y="270" width="270" height="80" as="geometry" />
        </mxCell>
        <mxCell id="EKtKe1YEMH_d9ayZxX_o-5" value="&lt;b&gt;&lt;font style=&quot;font-size: 13px;&quot;&gt;&lt;span style=&quot;color: rgb(0, 0, 0);&quot;&gt;&amp;nbsp;Kích hoạt AMI&lt;/span&gt;&lt;br style=&quot;padding: 0px; margin: 0px; color: rgb(0, 0, 0);&quot;&gt;&lt;span style=&quot;color: rgb(0, 0, 0);&quot;&gt;(ami_trigger.py)&lt;/span&gt;&lt;/font&gt;&lt;/b&gt;" style="ellipse;whiteSpace=wrap;html=1;strokeColor=#82b366;fillColor=#d5e8d4;" vertex="1" parent="1">
          <mxGeometry x="76" y="760" width="230" height="80" as="geometry" />
        </mxCell>
        <mxCell id="EKtKe1YEMH_d9ayZxX_o-6" value="&lt;b&gt;&lt;font style=&quot;font-size: 13px;&quot;&gt;&lt;span style=&quot;color: rgb(0, 0, 0);&quot;&gt;Bot Telegram&lt;/span&gt;&lt;br style=&quot;padding: 0px; margin: 0px; color: rgb(0, 0, 0);&quot;&gt;&lt;span style=&quot;color: rgb(0, 0, 0);&quot;&gt;(telegram_bot.py)&lt;/span&gt;&lt;/font&gt;&lt;/b&gt;" style="ellipse;whiteSpace=wrap;html=1;strokeColor=#82b366;fillColor=#d5e8d4;" vertex="1" parent="1">
          <mxGeometry x="320" y="760" width="228" height="80" as="geometry" />
        </mxCell>
        <mxCell id="EKtKe1YEMH_d9ayZxX_o-7" value="&lt;b&gt;&lt;font style=&quot;font-size: 13px;&quot;&gt;&lt;span style=&quot;color: rgb(0, 0, 0);&quot;&gt;Cơ sở dữ liệu&lt;/span&gt;&lt;br style=&quot;padding: 0px; margin: 0px; color: rgb(0, 0, 0);&quot;&gt;&lt;span style=&quot;color: rgb(0, 0, 0);&quot;&gt;(fall_events.db)&lt;/span&gt;&lt;/font&gt;&lt;/b&gt;" style="ellipse;whiteSpace=wrap;html=1;strokeColor=#82b366;fillColor=#d5e8d4;" vertex="1" parent="1">
          <mxGeometry x="560" y="760" width="230" height="80" as="geometry" />
        </mxCell>
        <mxCell id="EKtKe1YEMH_d9ayZxX_o-9" value="&lt;span style=&quot;color: rgb(0, 0, 0); font-family: Helvetica; font-size: 11px; font-style: normal; font-variant-ligatures: normal; font-variant-caps: normal; font-weight: 400; letter-spacing: normal; orphans: 2; text-align: center; text-indent: 0px; text-transform: none; widows: 2; word-spacing: 0px; -webkit-text-stroke-width: 0px; white-space: nowrap; background-color: rgb(255, 255, 255); text-decoration-thickness: initial; text-decoration-style: initial; text-decoration-color: initial; display: inline !important; float: none;&quot;&gt;Phát hiện té ngã&lt;/span&gt;" style="text;whiteSpace=wrap;html=1;fontColor=#1D3557;" vertex="1" parent="1">
          <mxGeometry x="540" y="720" width="110" height="40" as="geometry" />
        </mxCell>
      </root>
    </mxGraphModel>
  </diagram>
</mxfile>
